<svg width="600" height="400" viewBox="0 0 600 400" fill="none" xmlns="http://www.w3.org/2000/svg">
  <!-- Background -->
  <rect width="600" height="400" rx="16" fill="#F9FAFB"/>
  
  <!-- Header -->
  <rect width="600" height="64" fill="white"/>
  <rect x="24" y="20" width="120" height="24" rx="4" fill="#4F46E5"/>
  <rect x="456" y="20" width="120" height="24" rx="4" fill="#E5E7EB"/>
  
  <!-- Columns -->
  <rect x="24" y="88" width="176" height="288" rx="8" fill="white"/>
  <rect x="24" y="88" width="176" height="32" rx="8" fill="#F3F4F6"/>
  <rect x="32" y="96" width="64" height="16" rx="2" fill="#9CA3AF"/>
  
  <!-- Todo Items -->
  <rect x="32" y="136" width="160" height="48" rx="4" fill="#F9FAFB"/>
  <rect x="40" y="144" width="96" height="8" rx="2" fill="#D1D5DB"/>
  <rect x="40" y="160" width="144" height="8" rx="2" fill="#E5E7EB"/>
  
  <rect x="32" y="192" width="160" height="48" rx="4" fill="#F9FAFB"/>
  <rect x="40" y="200" width="80" height="8" rx="2" fill="#D1D5DB"/>
  <rect x="40" y="216" width="128" height="8" rx="2" fill="#E5E7EB"/>
  
  <!-- In Progress Column -->
  <rect x="212" y="88" width="176" height="288" rx="8" fill="white"/>
  <rect x="212" y="88" width="176" height="32" rx="8" fill="#F3F4F6"/>
  <rect x="220" y="96" width="96" height="16" rx="2" fill="#9CA3AF"/>
  
  <!-- In Progress Items -->
  <rect x="220" y="136" width="160" height="48" rx="4" fill="#F9FAFB"/>
  <rect x="228" y="144" width="112" height="8" rx="2" fill="#D1D5DB"/>
  <rect x="228" y="160" width="144" height="8" rx="2" fill="#E5E7EB"/>
  
  <!-- Done Column -->
  <rect x="400" y="88" width="176" height="288" rx="8" fill="white"/>
  <rect x="400" y="88" width="176" height="32" rx="8" fill="#F3F4F6"/>
  <rect x="408" y="96" width="48" height="16" rx="2" fill="#9CA3AF"/>
  
  <!-- Done Items -->
  <rect x="408" y="136" width="160" height="48" rx="4" fill="#F9FAFB"/>
  <rect x="416" y="144" width="128" height="8" rx="2" fill="#D1D5DB"/>
  <rect x="416" y="160" width="144" height="8" rx="2" fill="#E5E7EB"/>
  
  <rect x="408" y="192" width="160" height="48" rx="4" fill="#F9FAFB"/>
  <rect x="416" y="200" width="96" height="8" rx="2" fill="#D1D5DB"/>
  <rect x="416" y="216" width="128" height="8" rx="2" fill="#E5E7EB"/>
</svg> 